<svg width="580" height="119" viewBox="0 0 580 119" fill="none" xmlns="http://www.w3.org/2000/svg">
<path d="M10.777 75.1812C7.44151 74.6199 5.25622 73.9462 3.85303 72.8235C2.47284 71.757 1.15016 69.6238 1.15016 68.5011C1.1444 67.9398 1.09265 67.9398 0.575078 68.5011C-5.36442e-07 69.0625 0 69.0625 0 67.9398C0 67.3784 0 67.0416 0 67.0416C0 67.064 14.3885 67.064 31.6466 67.0416L63.0286 67.0023L65.0989 64.9814V60.2099C65.0989 55.663 65.0586 55.3823 64.2362 54.4729L63.3736 53.5186H37.4031C11.5131 53.5186 11.4268 53.5186 9.05173 52.5643C6.06133 51.5539 4.16356 49.8698 3.41596 47.3999C2.66836 44.9861 2.38083 38.0028 2.78338 34.0397C3.35846 30.5032 3.87603 28.7068 5.54376 27.2193C8.76419 24.3002 10.2019 24.1879 39.3354 24.1879C63.7474 24.1935 66.5193 24.188 70.01 25.4229C73.2305 26.4334 76.5947 29.7453 76.0714 31.334V32.0637H17.7412L16.8785 32.9057C16.0734 33.6916 16.0159 33.9162 16.0159 38.2947C16.0217 42.2242 16.0159 42.954 16.706 43.6837L17.3961 44.5258H42.8318C64.9436 44.5258 68.5493 44.5258 70.4643 45.3117C74.6049 46.3782 76.2151 47.5571 77.6011 50.4761C78.3486 52.104 78.4062 52.5531 78.4062 59.845C78.4062 68.8772 78.4062 70.1683 75.6458 72.3913C73.9206 73.9069 71.8503 74.6928 68.0835 75.198C64.8631 75.7594 13.198 75.7594 10.2824 75.1756L10.777 75.1812ZM102.358 75.1812C102.358 75.1812 102.358 63.8026 102.358 50.173V25.3948L103.163 24.6651L103.968 23.8792H169.579L171.937 24.6651C174.927 25.6755 176.825 27.3035 177.688 29.3805C178.263 30.7838 178.32 32.075 178.32 39.1817V47.3662L177.4 49.2187C175.79 52.3622 172.799 53.7656 166.56 54.327C164.375 54.327 152.85 54.8883 140.911 54.8883L119.196 54.8939L117.356 57.0271V75.3889H110.07C106.044 75.3889 102.692 75.3889 102.565 75.3889L102.358 75.1812ZM160.74 46.2884C163.04 45.278 163.443 44.3237 163.443 39.1985C163.443 35.3252 163.385 34.7638 162.695 33.9218C161.143 31.9009 161.775 31.9571 139.445 31.8448H118.961L118.041 32.9114C117.12 33.9779 117.12 34.0341 117.12 39.4343V44.8794L119.536 47.2371H139.382C157.876 47.2371 159.325 47.2371 160.717 46.5073L160.74 46.2884ZM236.426 70.7185C233.838 67.2381 232.516 65.7224 231.193 64.9197L229.468 63.797H206.982C194.457 63.797 184.554 63.797 184.623 63.2356C184.681 63.2356 186.176 61.2148 187.901 59.1377L191.064 55.3767L206.465 55.3599C221.451 55.3486 221.888 55.3262 222.509 54.6301C223.774 53.2267 223.429 52.4408 216.557 42.6957C212.934 37.5313 209.961 33.0461 209.95 32.7205C209.927 32.0469 216.707 23.6378 217.265 23.6322C217.265 23.6322 228.921 38.3453 251.758 68.3327L256.933 75.0914H239.94L236.432 70.4322L236.426 70.7185ZM289.207 75.2093C284.721 74.6479 281.564 73.5814 280.23 72.1219C279.655 71.5605 279.252 70.7185 278.85 69.7642L278.045 68.0801V31.2498L279.08 29.2289C280.345 26.7589 281.955 25.5801 285.187 24.7381C287.257 24.1767 289.788 24.1206 316.287 24.1206H345.11L347.641 24.9065C349.136 25.4678 350.688 26.1415 351.436 26.7589C352.759 27.9378 353.966 30.0709 353.966 31.362L353.978 32.1479H324.614C298.966 32.1479 295.113 32.1479 294.21 32.7093L293.175 33.2706V65.2509L295.36 67.0472H353.656V68.0015C353.656 69.7417 351.988 72.4362 350.263 73.3905C346.812 75.3552 347.157 75.2991 317.495 75.4114C302.508 75.4507 289.765 75.4226 289.19 75.4114L289.207 75.2093ZM378.706 75.198C378.706 75.198 378.706 67.4738 378.706 58.3126V41.6629H426.921V49.5218H395.964L394.124 51.4304V65.7561L396.079 67.5524H450.545V75.1868H414.775C395.113 75.1868 378.908 75.1868 378.781 75.1868L378.706 75.198ZM378.47 23.9241H451.149V32.4567H378.47V23.9241ZM11.1163 75.4338C7.03321 74.8163 5.16995 74.1989 3.41021 72.8516C2.26005 71.9534 0.534821 68.9783 0.362298 67.5749V66.7329H31.6351C48.8299 66.688 63.2529 66.7329 63.6842 66.7329C65.1219 66.1715 65.5244 64.9365 65.5244 60.1033C65.5244 56.1177 65.4669 55.5563 64.8343 54.995C64.2592 54.4336 63.7992 54.2091 63.3391 54.1529C62.764 54.1529 51.2222 54.1529 37.3858 54.1529H12.2319L9.87409 53.3671C6.65366 52.3005 4.69839 50.448 3.81852 47.6749C3.01341 45.0927 2.89839 34.427 3.81852 31.5697C4.79615 27.6964 7.384 25.7485 12.7955 24.8335C17.0511 24.1038 63.7244 24.1037 67.8305 24.8054C71.2234 25.3668 73.2937 26.265 75.2432 28.0613C77.141 29.7453 77.8311 31.1487 77.256 32.1592L76.6809 32.8889H47.5245C18.8281 32.8889 18.3507 32.9001 17.6606 33.5625C17.0281 34.18 16.9706 34.6853 16.9706 38.6147C16.9706 42.5442 17.0281 43.1055 17.7182 43.8914L18.4658 44.7896L41.2389 44.7952C53.7641 44.8008 65.4957 44.7952 67.3244 45.3565C72.0975 45.9179 74.9614 46.7599 76.7039 48.444C79.0618 50.7455 79.4068 52.1489 79.4068 60.8723C79.4068 67.3223 79.4068 68.6302 78.7742 70.2076C77.509 73.7442 74.5761 75.5405 68.8714 76.4387C66.9161 77 58.6925 77 40.6465 77C17.7987 77 14.7393 77.0056 11.3003 76.4387L11.1163 75.4338ZM101.783 50.6838L101.766 25.2658L103.606 23.5817H169.338L171.753 24.3676C174.686 25.3219 176.929 27.2305 177.814 29.4759C178.389 30.8793 178.447 32.1704 178.447 39.4231C178.447 47.4953 178.418 47.8321 177.642 49.3983C175.974 52.6541 172.753 54.2259 166.376 54.7873C164.363 54.7873 152.879 55.3486 140.837 55.3486L118.943 55.3599L118.196 56.258C117.506 57.1562 117.448 57.4369 117.563 66.6599V76.1524H101.68L101.668 50.7287L101.783 50.6838ZM160.527 46.0246C162.77 45.0141 163.058 44.1721 163.058 39.2771C163.058 34.5617 163.058 33.832 161.045 32.8721C160.01 32.3107 158.227 32.2546 139.56 32.1984H119.208L118.345 33.0405C117.483 33.8825 117.483 33.9948 117.483 39.322V44.7671L120.013 46.9003H139.635C157.048 46.9003 159.394 46.9003 160.533 46.2266L160.527 46.0246ZM239.509 75.838C239.56 75.838 238.013 73.4242 236.058 70.7858C233.125 66.8002 232.205 65.8459 230.767 65.0769L229.042 64.1787H206.465C194.054 64.1787 183.893 64.1787 183.893 64.1787C183.893 64.1787 185.503 62.1017 187.458 59.744L191.024 55.5339H222.009L222.584 54.5234C223.159 53.6814 223.159 53.3446 222.584 52.7271C222.584 52.1658 219.306 47.8433 215.764 42.8136C212.256 37.7614 209.357 33.4559 209.357 33.2033C209.357 33.2033 211.082 30.6772 213.268 28.095C217.006 23.6041 217.178 23.4357 217.753 24.0532C218.328 24.6146 227.041 36.0437 237.64 49.9204C248.238 63.8026 257.146 75.4282 257.422 75.7538C257.997 76.3151 257.44 76.3713 248.664 76.3713C243.603 76.3713 239.445 76.3713 239.497 76.3713L239.509 75.838ZM291.789 75.838C291.731 75.838 290.294 75.2766 288.684 75.2766C282.754 74.5469 280.092 73.0874 278.528 69.7192L277.723 67.9229V49.679C277.723 33.1022 277.78 31.2722 278.355 29.706C279.103 27.5168 281.058 25.6643 283.416 24.7661C286.924 23.475 289.943 23.3628 318.294 23.475C348.17 23.475 347.364 23.475 350.93 25.6643C352.713 26.7309 354.553 29.7061 354.38 31.2217V32.0637H324.649C300.156 32.0637 294.808 32.0637 294.337 32.6812C293.761 33.2426 293.761 34.6459 293.761 48.7303V64.3134L295.717 66.1098H354.202V67.0641C354.202 70.9374 351.097 73.8115 345.95 74.6199C344.627 74.6199 342.672 75.1812 341.637 75.3496C339.796 75.911 292.272 75.911 291.961 75.3496L291.789 75.838ZM378.217 58.6775L378.275 41.371H427.036V49.679H395.711L395.021 50.4649C394.389 51.1946 394.331 51.8682 394.331 58.2396C394.331 65.1835 394.337 65.2116 395.194 66.048L396.056 66.89H422.941C437.732 66.89 450.091 66.89 450.401 66.89C450.976 66.89 450.976 67.7321 450.976 71.3247L450.925 75.5349H378.344V58.2228L378.217 58.6775ZM378.275 32.2434C378.275 32.2434 378.275 29.9418 378.217 27.7525V23.6547H451.419V32.8608H414.89C385.13 32.8608 378.338 32.8608 378.194 32.2995L378.275 32.2434ZM11.3578 75.6415C6.06707 74.9679 2.93865 73.3961 1.45495 70.7016C0.0747617 68.2317 -0.0977666 66.9406 0.764851 66.4915C1.33993 66.4915 11.2025 65.9301 32.7392 65.9301H64.012L64.587 65.2004C65.3346 64.1338 65.3922 55.5114 64.633 54.5122C64.058 53.8947 63.3679 53.8386 38.5187 53.6702C11.191 53.6702 11.053 53.6702 7.65429 51.7054C5.81404 50.8073 4.89391 49.7969 3.91628 47.7199C3.16868 46.0919 3.11118 45.6429 3.11118 38.3172V30.621L4.14632 28.6002C5.5265 26.018 7.48176 24.6146 11.2198 23.7726C13.6926 23.2112 16.0504 23.1551 40.129 23.1551C63.8912 23.1551 66.5423 23.1551 68.6873 23.7726C71.6202 24.5023 73.633 25.5127 75.18 26.86C77.1352 28.6563 77.8828 30.8456 76.9052 31.7999C76.3301 32.3612 69.5902 32.3612 47.536 32.3612C28.2478 32.3612 18.3622 32.3612 17.9079 32.9226C17.2753 33.4839 17.2178 33.7085 17.2178 37.9748C17.2178 42.3533 17.2753 42.7463 17.9654 43.3076C18.6555 43.9251 19.7482 43.9812 44.4305 44.1497C66.2375 44.1497 70.4298 44.1497 71.9078 44.8794C75.4158 45.946 77.3135 47.3493 78.4407 49.8754C79.7058 52.5699 80.1084 60.0528 79.4183 66.1378C78.7857 71.5829 76.888 73.8171 71.4995 75.2822C68.7966 76.012 68.4516 76.012 41.1756 76.0681C25.9935 76.1018 12.5827 76.0681 11.3693 76.0681L11.3578 75.6415ZM101.777 50.2796V24.5584L102.985 23.8287C104.135 23.0989 104.365 23.0989 134.522 23.0989C153.442 23.0989 165.979 23.0989 167.785 23.6603C171.58 24.2216 174.249 25.1198 176.089 26.8039C178.562 28.9931 178.734 30.0036 178.619 40.1304V48.7864L177.584 50.4705C176.376 52.3791 173.846 54.0631 171.184 54.7368C169.976 55.2981 162.713 55.2981 144.529 55.3542C120.559 55.3542 119.467 55.3543 118.765 56.1963C118.075 56.8138 118.018 57.0944 118.018 66.5139V76.1804H101.944V50.4593L101.777 50.2796ZM159.584 45.9572C160.447 45.9572 161.482 45.2274 161.942 44.7222C162.69 43.9363 162.747 43.4873 162.862 39.8946C162.862 35.0108 162.287 33.6636 160.562 32.7766C159.354 32.2153 157.399 32.2153 139.209 32.2153H119.179L118.489 33.0012C117.914 33.7309 117.799 34.4046 117.799 39.2434V44.6885L119.639 46.3726H138.824C151.596 46.3726 158.509 46.3726 159.527 45.8112L159.584 45.9572ZM236.11 71.1788C233.58 67.6984 232.199 66.1266 231.049 65.4024L229.496 64.4482L206.712 64.4425C192.341 64.4369 183.864 64.4425 183.732 63.8812C183.732 63.3198 189.195 56.4938 190.621 55.2644C191.254 54.7031 192.576 54.6469 206.631 54.6469C221.848 54.6469 221.963 54.6413 222.354 53.9172C222.354 53.3558 222.929 52.9629 222.354 52.6261C222.354 52.0647 219.191 47.7984 215.511 42.5273C211.83 37.3068 208.822 32.8159 208.822 32.6026C208.822 31.9851 216.54 22.9081 217.04 22.9081C217.615 22.9081 256.416 73.4691 257.526 75.344C257.526 75.9054 255.858 75.9054 248.578 75.9054L239.388 75.8885L235.88 71.117L236.11 71.1788ZM287.545 75.445C282.139 74.603 279.557 72.9751 278.125 69.5116C277.377 67.6591 277.32 67.2661 277.205 51.1329C277.205 33.9499 277.257 31.0084 278.528 28.5946C280.08 25.6755 283.358 23.9915 288.781 23.4863C293.094 22.9249 339.67 22.9249 343.638 23.4975C347.203 24.0588 350.09 24.7886 351.735 26.0236C353.058 27.034 354.725 30.0092 354.725 31.4126V32.3668H325.362C294.204 32.3668 294.411 32.3612 293.796 33.9386C293.796 34.5 293.796 41.2025 293.796 49.4095V64.319L295.751 66.1154H325.011C357.94 66.1154 355.076 66.1154 354.288 68.8099C353.253 72.7393 350.493 74.6423 344.627 75.4956C339.739 76.2253 292.439 76.1692 287.758 75.4731L287.545 75.445ZM378.206 58.4978V41.0229H427.122V49.7239H411.618C396.453 49.7239 396.085 49.7351 395.182 50.4536L394.262 51.1834V65.7449L395.182 66.4746C396.102 67.1483 396.332 67.2044 423.263 67.2044C448.492 67.2044 450.453 67.2437 450.666 67.7658C450.666 68.3271 450.666 70.0673 450.666 72.2004L450.608 76.0738H377.66V58.5932L378.206 58.4978ZM378.275 32.5465C378.275 32.5465 378.275 30.1327 378.217 27.6627V23.228H451.592V32.771H414.982C385.095 32.771 378.344 32.7766 378.2 32.2097L378.275 32.5465ZM10.5297 75.5854C5.06644 74.8556 1.71948 72.6663 0.638333 69.0288C0.0632548 67.457 0.0632548 66.9518 0.638333 66.5588C1.21341 65.9975 5.41149 65.9975 32.4344 65.9975H63.8107L64.5583 65.0993C65.1909 64.3134 65.3059 63.7521 65.3059 59.8788C65.3059 56.1177 65.3059 55.4441 64.6158 54.7143L63.9257 53.9284H38.1277C11.4383 53.9284 10.8747 53.9284 8.01659 52.2444C3.76101 50.1112 2.43833 46.2266 2.84088 36.7061C2.84088 30.5481 3.64599 28.7181 5.8888 26.5961C7.72905 24.8559 9.51179 24.1262 13.4223 23.5648C15.0325 23.5648 24.6651 23.0035 41.9002 23.5648C67.8017 23.5648 67.9225 23.5648 70.24 24.4069C73.3455 25.4173 75.7033 27.0452 76.9455 29.01C77.8656 30.4695 77.9231 30.694 77.5205 31.6483L76.9455 32.6588H47.8983C22.1635 32.6588 18.7533 32.6587 18.069 33.2201C17.3214 33.7815 17.2638 34.006 17.2638 38.1039C17.2638 41.3036 17.2638 42.6508 17.8389 43.0999C18.414 43.7174 19.1041 43.7735 43.7749 43.9419C70.7404 43.9419 71.4247 43.9419 74.7429 45.8505C78.826 47.8714 79.8611 50.8466 79.8611 60.3503C79.8611 69.534 78.826 72.3969 74.6279 74.4795C71.35 76.1074 71.35 76.1074 41.2619 76.2197C25.7002 76.259 11.9156 76.2197 10.6274 76.2197L10.5297 75.5854ZM101.432 50.4143L101.421 24.8728L103.606 23.0765H169.384L171.741 23.8624C174.789 24.8728 176.802 26.3885 177.935 28.5216C178.798 30.2057 178.855 30.2618 178.855 38.755C178.855 48.2643 178.855 49.039 176.67 51.2732C175.175 52.845 173.564 53.7432 170.585 54.529C168.63 55.0904 165.41 55.0904 143.931 55.2588C119.611 55.2588 119.473 55.2588 118.69 56.1008C117.885 56.8306 117.885 56.8867 117.885 66.3118V75.8043H101.484L101.467 50.2572L101.432 50.4143ZM160.522 45.5306C161.212 44.9692 161.959 44.6324 162.189 44.2956C162.189 43.7342 162.764 41.7134 162.764 39.1873C162.764 34.1351 162.189 33.2931 160.062 32.6531C159.256 32.6531 151.522 32.0918 139.152 32.0918L119.524 32.0862L118.777 32.9843C118.087 33.8264 118.029 34.3316 118.029 38.9796V44.0879L120.099 46.1088H139.756C157.203 46.1088 159.555 46.1088 160.694 45.4351L160.522 45.5306ZM236.052 71.2461C233.58 67.878 232.084 66.2501 230.877 65.4474L229.209 64.3246H206.361C188.091 64.3246 183.525 64.3247 183.525 63.7633C183.525 63.202 188.125 57.5828 190.081 55.59L191.001 54.6357H206.235C217.621 54.6357 221.583 54.6357 221.894 54.0744C222.872 53.1201 221.894 51.829 215.511 42.314C210.22 34.7638 208.776 32.4567 209.029 32.0244C209.835 30.621 216.839 22.5993 217.259 22.5993C217.259 22.5993 226.725 34.3372 237.709 48.6854C248.693 63.0336 257.842 74.9679 258.032 75.2037C258.032 75.765 256.422 75.765 248.946 75.765H239.514L236.064 71.0497L236.052 71.2461ZM287.694 75.5686C281.386 74.7827 278.384 72.3688 277.51 67.4738C276.935 65.902 276.935 59.9405 276.935 47.95V30.6996L277.97 28.6788C278.717 27.2193 279.465 26.3772 280.73 25.5352C284.353 23.1214 285.561 23.0652 315.89 23.0652C344.409 23.0765 346.243 23.0652 349.607 24.7493C350.47 25.3107 351.735 26.0966 352.425 26.8824C353.863 28.5104 354.898 31.4294 354.323 32.103C353.748 32.6644 348.687 32.6644 324.338 32.6644C296.096 32.6644 294.705 32.6924 294.152 33.2819C293.577 33.8432 293.577 35.4711 293.577 49.286V64.6671L294.498 65.3968C295.418 66.0705 295.59 66.1266 324.724 66.1266H354.024L354.018 67.2493C354.018 69.214 353.271 70.9542 351.89 72.4699C350.165 74.2662 347.922 75.1644 343.857 75.6696C340.406 76.231 290.714 76.2309 287.372 75.6584L287.694 75.5686ZM377.872 58.4585L377.93 40.9836H402.543C421.992 40.9836 427.203 40.9892 427.427 41.545C428.002 42.1625 428.002 48.8987 427.427 49.6677C426.852 50.2852 426.507 50.3414 411.595 50.3414H396.12L395.372 51.1273C394.624 51.9132 394.624 52.1938 394.624 58.7392C394.624 65.4361 394.642 65.5821 395.43 66.3062L396.235 67.036H423.304C443.897 67.036 450.476 67.036 450.798 67.5973C450.798 67.5973 451.373 69.3937 451.373 72.2004V76.4106H378.016V58.9301L377.872 58.4585ZM377.93 32.5184C377.93 32.5184 377.93 30.1046 377.872 27.6347V23.2H451.592V32.7429H414.804C384.779 32.7429 377.993 32.7486 377.849 32.1816L377.93 32.5184ZM10.5297 75.5573C5.06644 74.8276 1.71948 72.6383 0.638333 69.0007C0.0632548 67.4289 0.0632548 66.9237 0.638333 66.5308C1.21341 65.9694 5.41149 65.9694 32.4344 65.9694H63.8107L64.5583 65.0712C65.1909 64.2854 65.3059 63.724 65.3059 59.8507C65.3059 56.0896 65.3059 55.416 64.6158 54.6862L63.9257 53.9003H38.1277C11.4383 53.9003 10.8747 53.9003 8.01659 52.2163C3.76101 50.0831 2.43833 46.1986 2.84088 36.678C2.84088 30.52 3.64599 28.69 5.8888 26.5681C7.72905 24.8279 9.51179 24.0981 13.4223 23.5368C15.0325 23.5368 24.6651 22.9754 41.9002 23.5368C67.8017 23.5368 67.9225 23.5368 70.24 24.3788C73.3455 25.3892 75.7033 27.0172 76.9455 28.9819C77.8656 30.4414 77.9231 30.6659 77.5205 31.6202L76.9455 32.6307H47.8983C22.1635 32.6307 18.7533 32.6307 18.069 33.192C17.3214 33.7534 17.2638 33.9779 17.2638 38.0758C17.2638 41.2755 17.2638 42.6228 17.8389 43.0718C18.414 43.6893 19.1041 43.7455 43.7749 43.9139C70.7404 43.9139 71.4247 43.9139 74.7429 45.8225C78.826 47.8433 79.8611 50.8185 79.8611 60.3222C79.8611 69.5059 78.826 72.3688 74.6279 74.4514C71.35 76.0794 71.35 76.0794 41.2619 76.1917C25.7002 76.2309 11.9156 76.1917 10.6274 76.1917L10.5297 75.5573ZM101.432 50.3863L101.421 24.8447L103.606 23.0484H169.384L171.741 23.8343C174.789 24.8447 176.802 26.3604 177.935 28.4935C178.798 30.1776 178.855 30.2337 178.855 38.727C178.855 48.2363 178.855 49.011 176.67 51.2451C175.175 52.8169 173.564 53.7151 170.585 54.501C168.63 55.0623 165.41 55.0624 143.931 55.2308C119.611 55.2308 119.473 55.2307 118.69 56.0728C117.885 56.8025 117.885 56.8587 117.885 66.2838V75.7762H101.484L101.467 50.2291L101.432 50.3863ZM160.522 45.5025C161.212 44.9411 161.959 44.6043 162.189 44.2675C162.189 43.7062 162.764 41.6853 162.764 39.1592C162.764 34.1071 162.189 33.265 160.062 32.6251C159.256 32.6251 151.522 32.0637 139.152 32.0637L119.524 32.0581L118.777 32.9563C118.087 33.7983 118.029 34.3035 118.029 38.9515V44.0598L120.099 46.0807H139.756C157.203 46.0807 159.555 46.0807 160.694 45.4071L160.522 45.5025ZM236.052 71.2181C233.58 67.8499 232.084 66.222 230.877 65.4193L229.209 64.2966H206.361C188.091 64.2966 183.525 64.2966 183.525 63.7352C183.525 63.1739 188.125 57.5548 190.081 55.562L191.001 54.6076H206.235C217.621 54.6076 221.583 54.6077 221.894 54.0463C222.872 53.092 221.894 51.8009 215.511 42.2859C210.22 34.7358 208.776 32.4286 209.029 31.9964C209.835 30.593 216.839 22.5712 217.259 22.5712C217.259 22.5712 226.725 34.3091 237.709 48.6573C248.693 63.0055 257.842 74.9398 258.032 75.1756C258.032 75.737 256.422 75.7369 248.946 75.7369H239.514L236.064 71.0216L236.052 71.2181ZM287.694 75.5405C281.386 74.7546 278.384 72.3408 277.51 67.4458C276.935 65.874 276.935 59.9124 276.935 47.9219V30.6716L277.97 28.6507C278.717 27.1912 279.465 26.3492 280.73 25.5071C284.353 23.0933 285.561 23.0372 315.89 23.0372C344.409 23.0484 346.243 23.0372 349.607 24.7212C350.47 25.2826 351.735 26.0685 352.425 26.8544C353.863 28.4823 354.898 31.4013 354.323 32.0749C353.748 32.6363 348.687 32.6363 324.338 32.6363C296.096 32.6363 294.705 32.6644 294.152 33.2538C293.577 33.8152 293.577 35.4431 293.577 49.258V64.639L294.498 65.3688C295.418 66.0424 295.59 66.0985 324.724 66.0985H354.024L354.018 67.2212C354.018 69.186 353.271 70.9262 351.89 72.4418C350.165 74.2381 347.922 75.1363 343.857 75.6415C340.406 76.2029 290.714 76.2029 287.372 75.6303L287.694 75.5405ZM377.872 58.4305L377.93 40.9556H402.543C421.992 40.9556 427.203 40.9612 427.427 41.5169C428.002 42.1344 428.002 48.8706 427.427 49.6397C426.852 50.2572 426.507 50.3133 411.595 50.3133H396.12L395.372 51.0992C394.624 51.8851 394.624 52.1658 394.624 58.7111C394.624 65.4081 394.642 65.554 395.43 66.2782L396.235 67.0079H423.304C443.897 67.0079 450.476 67.0079 450.798 67.5693C450.798 67.5693 451.373 69.3656 451.373 72.1724V76.3825H378.016V58.902L377.872 58.4305ZM377.93 32.4903C377.93 32.4903 377.93 30.0765 377.872 27.6066V23.1719H451.592V32.7149H414.804C384.779 32.7149 377.993 32.7205 377.849 32.1535L377.93 32.4903ZM10.2421 75.5629C4.47986 74.8332 1.4607 72.6439 0.42556 68.6022C-0.149518 67.0304 -0.149519 66.9181 1.00064 66.3006C1.74824 65.6831 3.24344 65.6831 33.0095 65.6831C63.5174 65.6831 64.2362 65.6663 64.587 65.0095C64.587 64.4481 65.1621 62.2028 65.1621 59.5644C65.1621 55.2981 65.1046 54.7368 64.5295 54.4561C63.9544 54.4561 54.0401 53.8947 38.766 53.8947C10.8862 53.8947 10.6792 53.8947 7.26324 51.4809C3.69775 49.1232 3.12267 47.383 3.12267 38.2947C3.12267 30.2449 3.69775 28.5553 5.71053 26.3885C7.32075 24.8167 8.87345 24.0869 12.1284 23.3572C14.3712 22.7958 17.6492 22.7958 40.3302 22.7958C64.104 22.7846 66.2087 22.8295 68.7966 23.4133C72.2471 24.1992 74.4899 25.378 76.3186 27.2866C77.8713 28.9707 78.3314 30.1495 77.7563 31.3845L77.1813 32.2265H48.3698C30.5021 32.2265 19.2249 32.2265 18.667 32.7879L17.7469 33.3492V38.0646C17.7469 42.2186 17.7469 42.8922 18.3795 43.3413C18.9546 43.9027 21.1399 43.9026 42.8088 43.9026C57.8931 43.9026 67.589 43.9027 69.3084 44.464C74.5416 45.1938 77.4515 46.8778 79.0157 50.2066C79.6483 51.61 79.7634 52.5082 79.8784 59.1658C79.9359 63.8812 79.8496 67.2437 79.8784 68.4562C78.9007 72.947 75.5078 75.5068 69.5672 76.1467C65.9442 76.7081 13.6811 76.7081 10.6965 76.1524L10.2421 75.5629ZM101.427 50.3414V24.7774L102.232 24.0476C102.807 23.4863 103.382 23.2056 103.842 23.0372C104.877 22.4758 159.521 22.4758 165.473 23.054C172.633 23.6154 176.118 25.0749 178.084 28.6732C178.775 29.9643 178.832 30.5817 178.947 38.3396C178.947 47.602 178.947 49.1962 176.934 51.4416C176.359 52.1152 175.037 53.1257 174.001 53.5748C170.321 55.315 168.653 55.4272 143.217 55.4272C122.601 55.4385 119.708 55.4272 119.024 55.9886C118.276 56.5499 118.219 56.606 118.219 65.6831C118.219 70.7353 118.219 75.0858 118.219 75.3777C118.219 75.939 116.954 75.939 109.828 75.939H101.662V50.375L101.427 50.3414ZM159.837 45.5137C162.138 44.8962 162.54 43.9981 162.54 39.3669C162.54 34.7077 162.54 33.8657 160.7 33.0124C159.665 32.4511 158.055 32.3949 139.692 32.2827C122.118 32.2827 119.731 32.2433 118.989 32.844C118.184 33.4053 118.184 33.4615 118.184 38.9964C118.184 44.1609 118.242 44.6717 118.874 45.3004C119.565 45.974 120.025 45.974 139.054 45.974C151.326 45.974 159.003 45.974 159.82 45.4127L159.837 45.5137ZM237.064 72.7281C235.742 70.9879 234.132 68.7986 233.441 67.8443C232.636 66.7778 231.486 65.7673 230.451 65.206L228.726 64.3078H205.936C185.526 64.3078 183.174 64.2517 183.358 63.7464C183.358 63.1851 185.141 61.3327 187.096 58.975L190.661 54.7087H205.959C219.41 54.7087 221.33 54.7087 221.813 54.1473C222.388 53.586 222.388 53.3614 222.388 53.0246C222.388 52.4633 219.398 48.1409 215.706 42.9034C212.026 37.6829 208.955 33.1359 208.88 32.8552C208.88 32.1255 216.747 22.5656 217.431 22.6947C218.006 22.6947 258.377 75.2486 258.377 75.7089C258.377 75.7089 254.121 75.7089 248.94 75.7089H239.509L237.151 72.5653L237.064 72.7281ZM287.464 75.5349C282.749 74.9735 279.73 73.2333 278.165 70.1459L277.36 68.5179V50.1561C277.36 29.3243 277.36 29.2401 279.776 26.5849C281.386 24.9009 283.514 23.8904 286.918 23.2729C290.368 22.5993 342.022 22.5993 345.605 23.2617C350.723 24.1599 353.754 26.4053 354.875 30.0485C355.68 32.743 358.383 32.5184 325.259 32.5184C299.006 32.5184 295.533 32.5184 294.843 33.0798L294.095 33.6411V64.1787L295.705 65.6382H324.706C348.135 65.6382 353.828 65.6382 354.334 66.1996C354.91 66.7609 354.91 66.817 354.334 68.5572C353.644 71.9254 351.632 73.8901 347.675 75.1644C345.892 75.7257 343.707 75.7819 317.633 75.838C302.163 75.8717 288.557 75.7931 287.407 75.838L287.464 75.5349ZM377.775 58.4754C377.775 41.6404 377.798 41.0847 378.465 40.7422C379.5 40.1809 426.386 40.1809 427.168 40.7422C427.743 41.3036 427.743 41.6965 427.743 45.4015V49.6677H411.952C397.391 49.6677 396.108 49.6677 395.533 50.4536C394.958 51.015 394.9 51.8009 394.9 58.0319C394.9 64.2629 394.958 65.06 395.533 65.6045C396.108 66.1659 397.833 66.222 423.654 66.3904H451.16V75.4843H377.763V58.0993L377.775 58.4754ZM378.194 32.8384C377.619 32.277 377.619 30.9859 377.619 27.8985C377.619 23.8006 377.677 23.3515 378.309 23.0147C379.057 22.4534 450.142 22.4534 451.155 23.0147C451.96 23.5761 451.96 32.8664 451.155 33.1752C451.155 33.1752 434.368 33.1752 414.534 33.1752C386.953 33.1752 378.373 33.1752 378.051 32.6138L378.194 32.8384ZM9.14949 75.5573C6.33161 74.996 3.22619 73.8733 2.01277 72.3015C1.43769 71.684 0.862617 70.2806 0.575078 69.214C-5.36442e-07 67.6422 -5.36442e-07 67.137 0.575078 66.4634C0.575078 65.9021 1.26517 65.5652 1.61022 65.5091C2.1853 65.5091 15.9239 65.453 32.7392 65.5259C59.7219 65.5259 63.3909 65.526 64.0062 64.9646C64.6388 64.4033 64.6963 64.0664 64.6963 59.6317C64.6963 55.7023 64.6963 54.748 64.1212 54.5234C64.1212 54.5234 54.8452 53.9621 41.5897 53.9621C29.4843 53.9565 17.8274 53.9621 15.6939 53.4007C10.1731 52.8394 7.50477 52.0535 5.41149 50.0326C3.05367 47.7311 2.5936 46.047 2.36357 39.4399C1.78849 27.6908 3.97379 24.1711 11.7891 22.5937C15.6996 21.8078 64.0005 21.8078 68.1698 22.56C71.7928 23.2336 74.2139 24.4686 76.1519 26.5456C77.9921 28.5665 78.3947 29.6892 77.7046 30.9242L77.1295 31.8223H47.6912C22.0312 31.8223 18.2185 31.8223 17.9309 32.496C17.9309 32.496 17.3559 34.7975 17.3559 36.9868C17.3501 40.2426 17.3559 41.0847 17.9884 41.646C18.621 42.3758 18.736 42.3758 43.9302 42.488C66.7378 42.488 69.4637 42.488 71.327 43.2178C76.1576 44.565 78.3774 46.642 79.4183 50.622C80.2234 53.7095 79.9934 66.4016 78.8432 68.8323C77.9806 71.0777 75.7953 73.1547 73.2075 74.1652L71.1372 74.9511L41.0951 75.0072C24.5673 75.0353 10.0064 74.951 8.73543 75.0072L9.14949 75.5573ZM101.312 75.5573C101.312 75.5573 101.312 63.9149 101.312 49.9596V24.5921L103.612 22.5712L135.764 22.5769C170.062 22.5825 170.476 22.6049 174.088 24.2609C176.158 25.2152 177.768 26.787 178.688 28.6956C179.378 30.1551 179.436 30.8287 179.436 39.0975V47.9612L178.516 49.6453C177.021 52.3959 175.18 53.6309 171.057 54.8097C169.159 55.3711 166.514 55.4272 144.333 55.5395C119.864 55.5395 119.697 55.5395 119.087 56.3815C118.512 56.999 118.455 58.0094 118.455 66.4353V75.7762H110.122C105.521 75.7762 101.697 75.7762 101.57 75.7762L101.312 75.5573ZM160.274 44.9524C160.907 44.9524 161.654 44.1665 161.827 43.7735C161.827 43.2122 162.402 41.2474 162.402 38.7775C162.402 33.9499 162.402 33.5008 159.699 32.8103C158.837 32.8103 151.579 32.249 139.071 32.249C120.232 32.249 119.749 32.2658 119.064 32.9226C118.432 33.5401 118.374 34.0453 118.374 38.48C118.374 42.9147 118.374 43.476 119.122 44.2788L119.869 45.1769H139.594C155.812 45.1769 159.527 45.1769 160.499 44.6156L160.274 44.9524ZM238.991 75.3608C238.991 75.3608 237.036 73.0593 235.311 70.7016C233.585 68.4001 231.572 66.0985 230.825 65.5933L229.445 64.6951H206.206C185.014 64.6951 182.978 64.6951 183.019 63.9654C183.042 63.404 184.744 61.3832 186.814 58.9132L190.552 54.4224H221.779L221.773 53.412C221.773 52.6261 220.048 49.9877 215.016 42.7406C211.278 37.4639 208.339 32.9001 208.431 32.6644C209.006 31.6539 216.787 22.5488 217.265 22.5488C217.84 22.5488 258.285 75.0802 258.285 75.7482C258.285 76.3095 239.704 76.3095 238.98 75.7482L238.991 75.3608ZM286.395 75.3608C282.197 74.7995 279.373 73.0593 277.792 69.7361C276.986 68.052 276.986 67.9959 276.871 50.128C276.871 28.9707 276.871 29.0043 279.804 26.0292C281.299 24.5697 282.047 24.1206 284.175 23.447L286.763 22.6611H345.461L347.934 23.447C349.314 24.0083 351.039 24.6258 351.787 25.1872C354.03 26.7589 356.042 31.1207 355.065 32.2602C354.49 32.8216 350.579 32.8215 325.143 32.8215C305.47 32.8215 295.406 32.8216 294.958 33.3829C294.325 33.9443 294.268 34.2811 294.268 49.011V64.2854L295.878 65.7449H325.259C358.188 65.7449 355.352 65.7449 354.697 68.3271C353.662 72.9302 350.901 75.0577 345.329 75.6303C341.763 76.1917 289.966 76.1917 286.383 75.6078L286.395 75.3608ZM377.66 75.3608C377.66 75.3608 377.66 41.4046 377.637 40.658C377.637 40.0967 380.34 40.0967 402.762 40.0967C425.144 40.0967 427.68 40.1528 427.87 40.658C428.445 41.5562 427.87 48.6517 427.87 49.3534C427.295 49.9709 426.95 50.027 411.98 50.027C396.913 50.027 396.424 50.0495 395.746 50.7006C395.113 51.3181 395.056 51.8233 395.056 58.0319C395.056 64.2292 395.107 64.7288 395.746 65.3631C396.436 66.0368 396.896 66.0368 423.649 66.0368C446.462 66.0368 450.93 66.0368 451.264 66.5981C451.264 67.1595 451.839 68.4506 451.264 71.3135V75.5236H414.551C394.366 75.5685 377.734 75.5068 377.602 75.5236L377.66 75.3608ZM377.637 32.4174C377.062 31.6315 377.637 23.3066 377.694 22.807C377.694 22.2457 385.607 22.2457 414.988 22.2457H452V32.4623H414.913C381.323 32.4623 377.809 32.496 377.619 31.9009L377.637 32.4174Z" fill="black"/>
<path d="M580 22C562.5 29.471 525.738 39.8 490 111C503.402 62.05 536.065 26.45 545 22H580Z" fill="black"/>
<path d="M507 22H477L514.5 47L522 37L507 22Z" fill="black"/>
</svg>
