<svg width="580" height="119" viewBox="0 0 580 119" fill="none" xmlns="http://www.w3.org/2000/svg">
<path d="M10.777 76.1812C7.44151 75.6199 5.25622 74.9462 3.85303 73.8235C2.47284 72.757 1.15016 70.6238 1.15016 69.5011C1.1444 68.9398 1.09265 68.9398 0.575078 69.5011C-5.36442e-07 70.0625 0 70.0625 0 68.9398C0 68.3784 0 68.0416 0 68.0416C0 68.064 14.3885 68.064 31.6466 68.0416L63.0286 68.0023L65.0989 65.9814V61.2099C65.0989 56.663 65.0586 56.3823 64.2362 55.4729L63.3736 54.5186H37.4031C11.5131 54.5186 11.4268 54.5186 9.05173 53.5643C6.06133 52.5539 4.16356 50.8698 3.41596 48.3999C2.66836 45.9861 2.38083 39.0028 2.78338 35.0397C3.35846 31.5032 3.87603 29.7068 5.54376 28.2193C8.76419 25.3002 10.2019 25.1879 39.3354 25.1879C63.7474 25.1935 66.5193 25.188 70.01 26.4229C73.2305 27.4334 76.5947 30.7453 76.0714 32.334V33.0637H17.7412L16.8785 33.9057C16.0734 34.6916 16.0159 34.9162 16.0159 39.2947C16.0217 43.2242 16.0159 43.954 16.706 44.6837L17.3961 45.5258H42.8318C64.9436 45.5258 68.5493 45.5258 70.4643 46.3117C74.6049 47.3782 76.2151 48.5571 77.6011 51.4761C78.3486 53.104 78.4062 53.5531 78.4062 60.845C78.4062 69.8772 78.4062 71.1683 75.6458 73.3913C73.9206 74.9069 71.8503 75.6928 68.0835 76.198C64.8631 76.7594 13.198 76.7594 10.2824 76.1756L10.777 76.1812ZM102.358 76.1812C102.358 76.1812 102.358 64.8026 102.358 51.173V26.3948L103.163 25.6651L103.968 24.8792H169.579L171.937 25.6651C174.927 26.6755 176.825 28.3035 177.688 30.3805C178.263 31.7838 178.32 33.075 178.32 40.1817V48.3662L177.4 50.2187C175.79 53.3622 172.799 54.7656 166.56 55.327C164.375 55.327 152.85 55.8883 140.911 55.8883L119.196 55.8939L117.356 58.0271V76.3889H110.07C106.044 76.3889 102.692 76.3889 102.565 76.3889L102.358 76.1812ZM160.74 47.2884C163.04 46.278 163.443 45.3237 163.443 40.1985C163.443 36.3252 163.385 35.7638 162.695 34.9218C161.143 32.9009 161.775 32.9571 139.445 32.8448H118.961L118.041 33.9114C117.12 34.9779 117.12 35.0341 117.12 40.4343V45.8794L119.536 48.2371H139.382C157.876 48.2371 159.325 48.2371 160.717 47.5073L160.74 47.2884ZM236.426 71.7185C233.838 68.2381 232.516 66.7224 231.193 65.9197L229.468 64.797H206.982C194.457 64.797 184.554 64.797 184.623 64.2356C184.681 64.2356 186.176 62.2148 187.901 60.1377L191.064 56.3767L206.465 56.3599C221.451 56.3486 221.888 56.3262 222.509 55.6301C223.774 54.2267 223.429 53.4408 216.557 43.6957C212.934 38.5313 209.961 34.0461 209.95 33.7205C209.927 33.0469 216.707 24.6378 217.265 24.6322C217.265 24.6322 228.921 39.3453 251.758 69.3327L256.933 76.0914H239.94L236.432 71.4322L236.426 71.7185ZM289.207 76.2093C284.721 75.6479 281.564 74.5814 280.23 73.1219C279.655 72.5605 279.252 71.7185 278.85 70.7642L278.045 69.0801V32.2498L279.08 30.2289C280.345 27.7589 281.955 26.5801 285.187 25.7381C287.257 25.1767 289.788 25.1206 316.287 25.1206H345.11L347.641 25.9065C349.136 26.4678 350.688 27.1415 351.436 27.7589C352.759 28.9378 353.966 31.0709 353.966 32.362L353.978 33.1479H324.614C298.966 33.1479 295.113 33.1479 294.21 33.7093L293.175 34.2706V66.2509L295.36 68.0472H353.656V69.0015C353.656 70.7417 351.988 73.4362 350.263 74.3905C346.812 76.3552 347.157 76.2991 317.495 76.4114C302.508 76.4507 289.765 76.4226 289.19 76.4114L289.207 76.2093ZM378.706 76.198C378.706 76.198 378.706 68.4738 378.706 59.3126V42.6629H426.921V50.5218H395.964L394.124 52.4304V66.7561L396.079 68.5524H450.545V76.1868H414.775C395.113 76.1868 378.908 76.1868 378.781 76.1868L378.706 76.198ZM378.47 24.9241H451.149V33.4567H378.47V24.9241ZM11.1163 76.4338C7.03321 75.8163 5.16995 75.1989 3.41021 73.8516C2.26005 72.9534 0.534821 69.9783 0.362298 68.5749V67.7329H31.6351C48.8299 67.688 63.2529 67.7329 63.6842 67.7329C65.1219 67.1715 65.5244 65.9365 65.5244 61.1033C65.5244 57.1177 65.4669 56.5563 64.8343 55.995C64.2592 55.4336 63.7992 55.2091 63.3391 55.1529C62.764 55.1529 51.2222 55.1529 37.3858 55.1529H12.2319L9.87409 54.3671C6.65366 53.3005 4.69839 51.448 3.81852 48.6749C3.01341 46.0927 2.89839 35.427 3.81852 32.5697C4.79615 28.6964 7.384 26.7485 12.7955 25.8335C17.0511 25.1038 63.7244 25.1037 67.8305 25.8054C71.2234 26.3668 73.2937 27.265 75.2432 29.0613C77.141 30.7453 77.8311 32.1487 77.256 33.1592L76.6809 33.8889H47.5245C18.8281 33.8889 18.3507 33.9001 17.6606 34.5625C17.0281 35.18 16.9706 35.6853 16.9706 39.6147C16.9706 43.5442 17.0281 44.1055 17.7182 44.8914L18.4658 45.7896L41.2389 45.7952C53.7641 45.8008 65.4957 45.7952 67.3244 46.3565C72.0975 46.9179 74.9614 47.7599 76.7039 49.444C79.0618 51.7455 79.4068 53.1489 79.4068 61.8723C79.4068 68.3223 79.4068 69.6302 78.7742 71.2076C77.509 74.7442 74.5761 76.5405 68.8714 77.4387C66.9161 78 58.6925 78 40.6465 78C17.7987 78 14.7393 78.0056 11.3003 77.4387L11.1163 76.4338ZM101.783 51.6838L101.766 26.2658L103.606 24.5817H169.338L171.753 25.3676C174.686 26.3219 176.929 28.2305 177.814 30.4759C178.389 31.8793 178.447 33.1704 178.447 40.4231C178.447 48.4953 178.418 48.8321 177.642 50.3983C175.974 53.6541 172.753 55.2259 166.376 55.7873C164.363 55.7873 152.879 56.3486 140.837 56.3486L118.943 56.3599L118.196 57.258C117.506 58.1562 117.448 58.4369 117.563 67.6599V77.1524H101.68L101.668 51.7287L101.783 51.6838ZM160.527 47.0246C162.77 46.0141 163.058 45.1721 163.058 40.2771C163.058 35.5617 163.058 34.832 161.045 33.8721C160.01 33.3107 158.227 33.2546 139.56 33.1984H119.208L118.345 34.0405C117.483 34.8825 117.483 34.9948 117.483 40.322V45.7671L120.013 47.9003H139.635C157.048 47.9003 159.394 47.9003 160.533 47.2266L160.527 47.0246ZM239.509 76.838C239.56 76.838 238.013 74.4242 236.058 71.7858C233.125 67.8002 232.205 66.8459 230.767 66.0769L229.042 65.1787H206.465C194.054 65.1787 183.893 65.1787 183.893 65.1787C183.893 65.1787 185.503 63.1017 187.458 60.744L191.024 56.5339H222.009L222.584 55.5234C223.159 54.6814 223.159 54.3446 222.584 53.7271C222.584 53.1658 219.306 48.8433 215.764 43.8136C212.256 38.7614 209.357 34.4559 209.357 34.2033C209.357 34.2033 211.082 31.6772 213.268 29.095C217.006 24.6041 217.178 24.4357 217.753 25.0532C218.328 25.6146 227.041 37.0437 237.64 50.9204C248.238 64.8026 257.146 76.4282 257.422 76.7538C257.997 77.3151 257.44 77.3713 248.664 77.3713C243.603 77.3713 239.445 77.3713 239.497 77.3713L239.509 76.838ZM291.789 76.838C291.731 76.838 290.294 76.2766 288.684 76.2766C282.754 75.5469 280.092 74.0874 278.528 70.7192L277.723 68.9229V50.679C277.723 34.1022 277.78 32.2722 278.355 30.706C279.103 28.5168 281.058 26.6643 283.416 25.7661C286.924 24.475 289.943 24.3628 318.294 24.475C348.17 24.475 347.364 24.475 350.93 26.6643C352.713 27.7309 354.553 30.7061 354.38 32.2217V33.0637H324.649C300.156 33.0637 294.808 33.0637 294.337 33.6812C293.761 34.2426 293.761 35.6459 293.761 49.7303V65.3134L295.717 67.1098H354.202V68.0641C354.202 71.9374 351.097 74.8115 345.95 75.6199C344.627 75.6199 342.672 76.1812 341.637 76.3496C339.796 76.911 292.272 76.911 291.961 76.3496L291.789 76.838ZM378.217 59.6775L378.275 42.371H427.036V50.679H395.711L395.021 51.4649C394.389 52.1946 394.331 52.8682 394.331 59.2396C394.331 66.1835 394.337 66.2116 395.194 67.048L396.056 67.89H422.941C437.732 67.89 450.091 67.89 450.401 67.89C450.976 67.89 450.976 68.7321 450.976 72.3247L450.925 76.5349H378.344V59.2228L378.217 59.6775ZM378.275 33.2434C378.275 33.2434 378.275 30.9418 378.217 28.7525V24.6547H451.419V33.8608H414.89C385.13 33.8608 378.338 33.8608 378.194 33.2995L378.275 33.2434ZM11.3578 76.6415C6.06707 75.9679 2.93865 74.3961 1.45495 71.7016C0.0747617 69.2317 -0.0977666 67.9406 0.764851 67.4915C1.33993 67.4915 11.2025 66.9301 32.7392 66.9301H64.012L64.587 66.2004C65.3346 65.1338 65.3922 56.5114 64.633 55.5122C64.058 54.8947 63.3679 54.8386 38.5187 54.6702C11.191 54.6702 11.053 54.6702 7.65429 52.7054C5.81404 51.8073 4.89391 50.7969 3.91628 48.7199C3.16868 47.0919 3.11118 46.6429 3.11118 39.3172V31.621L4.14632 29.6002C5.5265 27.018 7.48176 25.6146 11.2198 24.7726C13.6926 24.2112 16.0504 24.1551 40.129 24.1551C63.8912 24.1551 66.5423 24.1551 68.6873 24.7726C71.6202 25.5023 73.633 26.5127 75.18 27.86C77.1352 29.6563 77.8828 31.8456 76.9052 32.7999C76.3301 33.3612 69.5902 33.3612 47.536 33.3612C28.2478 33.3612 18.3622 33.3612 17.9079 33.9226C17.2753 34.4839 17.2178 34.7085 17.2178 38.9748C17.2178 43.3533 17.2753 43.7463 17.9654 44.3076C18.6555 44.9251 19.7482 44.9812 44.4305 45.1497C66.2375 45.1497 70.4298 45.1497 71.9078 45.8794C75.4158 46.946 77.3135 48.3493 78.4407 50.8754C79.7058 53.5699 80.1084 61.0528 79.4183 67.1378C78.7857 72.5829 76.888 74.8171 71.4995 76.2822C68.7966 77.012 68.4516 77.012 41.1756 77.0681C25.9935 77.1018 12.5827 77.0681 11.3693 77.0681L11.3578 76.6415ZM101.777 51.2796V25.5584L102.985 24.8287C104.135 24.0989 104.365 24.0989 134.522 24.0989C153.442 24.0989 165.979 24.0989 167.785 24.6603C171.58 25.2216 174.249 26.1198 176.089 27.8039C178.562 29.9931 178.734 31.0036 178.619 41.1304V49.7864L177.584 51.4705C176.376 53.3791 173.846 55.0631 171.184 55.7368C169.976 56.2981 162.713 56.2981 144.529 56.3542C120.559 56.3542 119.467 56.3543 118.765 57.1963C118.075 57.8138 118.018 58.0944 118.018 67.5139V77.1804H101.944V51.4593L101.777 51.2796ZM159.584 46.9572C160.447 46.9572 161.482 46.2274 161.942 45.7222C162.69 44.9363 162.747 44.4873 162.862 40.8946C162.862 36.0108 162.287 34.6636 160.562 33.7766C159.354 33.2153 157.399 33.2153 139.209 33.2153H119.179L118.489 34.0012C117.914 34.7309 117.799 35.4046 117.799 40.2434V45.6885L119.639 47.3726H138.824C151.596 47.3726 158.509 47.3726 159.527 46.8112L159.584 46.9572ZM236.11 72.1788C233.58 68.6984 232.199 67.1266 231.049 66.4024L229.496 65.4482L206.712 65.4425C192.341 65.4369 183.864 65.4425 183.732 64.8812C183.732 64.3198 189.195 57.4938 190.621 56.2644C191.254 55.7031 192.576 55.6469 206.631 55.6469C221.848 55.6469 221.963 55.6413 222.354 54.9172C222.354 54.3558 222.929 53.9629 222.354 53.6261C222.354 53.0647 219.191 48.7984 215.511 43.5273C211.83 38.3068 208.822 33.8159 208.822 33.6026C208.822 32.9851 216.54 23.9081 217.04 23.9081C217.615 23.9081 256.416 74.4691 257.526 76.344C257.526 76.9054 255.858 76.9054 248.578 76.9054L239.388 76.8885L235.88 72.117L236.11 72.1788ZM287.545 76.445C282.139 75.603 279.557 73.9751 278.125 70.5116C277.377 68.6591 277.32 68.2661 277.205 52.1329C277.205 34.9499 277.257 32.0084 278.528 29.5946C280.08 26.6755 283.358 24.9915 288.781 24.4863C293.094 23.9249 339.67 23.9249 343.638 24.4975C347.203 25.0588 350.09 25.7886 351.735 27.0236C353.058 28.034 354.725 31.0092 354.725 32.4126V33.3668H325.362C294.204 33.3668 294.411 33.3612 293.796 34.9386C293.796 35.5 293.796 42.2025 293.796 50.4095V65.319L295.751 67.1154H325.011C357.94 67.1154 355.076 67.1154 354.288 69.8099C353.253 73.7393 350.493 75.6423 344.627 76.4956C339.739 77.2253 292.439 77.1692 287.758 76.4731L287.545 76.445ZM378.206 59.4978V42.0229H427.122V50.7239H411.618C396.453 50.7239 396.085 50.7351 395.182 51.4536L394.262 52.1834V66.7449L395.182 67.4746C396.102 68.1483 396.332 68.2044 423.263 68.2044C448.492 68.2044 450.453 68.2437 450.666 68.7658C450.666 69.3271 450.666 71.0673 450.666 73.2004L450.608 77.0738H377.66V59.5932L378.206 59.4978ZM378.275 33.5465C378.275 33.5465 378.275 31.1327 378.217 28.6627V24.228H451.592V33.771H414.982C385.095 33.771 378.344 33.7766 378.2 33.2097L378.275 33.5465ZM10.5297 76.5854C5.06644 75.8556 1.71948 73.6663 0.638333 70.0288C0.0632548 68.457 0.0632548 67.9518 0.638333 67.5588C1.21341 66.9975 5.41149 66.9975 32.4344 66.9975H63.8107L64.5583 66.0993C65.1909 65.3134 65.3059 64.7521 65.3059 60.8788C65.3059 57.1177 65.3059 56.4441 64.6158 55.7143L63.9257 54.9284H38.1277C11.4383 54.9284 10.8747 54.9284 8.01659 53.2444C3.76101 51.1112 2.43833 47.2266 2.84088 37.7061C2.84088 31.5481 3.64599 29.7181 5.8888 27.5961C7.72905 25.8559 9.51179 25.1262 13.4223 24.5648C15.0325 24.5648 24.6651 24.0035 41.9002 24.5648C67.8017 24.5648 67.9225 24.5648 70.24 25.4069C73.3455 26.4173 75.7033 28.0452 76.9455 30.01C77.8656 31.4695 77.9231 31.694 77.5205 32.6483L76.9455 33.6588H47.8983C22.1635 33.6588 18.7533 33.6587 18.069 34.2201C17.3214 34.7815 17.2638 35.006 17.2638 39.1039C17.2638 42.3036 17.2638 43.6508 17.8389 44.0999C18.414 44.7174 19.1041 44.7735 43.7749 44.9419C70.7404 44.9419 71.4247 44.9419 74.7429 46.8505C78.826 48.8714 79.8611 51.8466 79.8611 61.3503C79.8611 70.534 78.826 73.3969 74.6279 75.4795C71.35 77.1074 71.35 77.1074 41.2619 77.2197C25.7002 77.259 11.9156 77.2197 10.6274 77.2197L10.5297 76.5854ZM101.432 51.4143L101.421 25.8728L103.606 24.0765H169.384L171.741 24.8624C174.789 25.8728 176.802 27.3885 177.935 29.5216C178.798 31.2057 178.855 31.2618 178.855 39.755C178.855 49.2643 178.855 50.039 176.67 52.2732C175.175 53.845 173.564 54.7432 170.585 55.529C168.63 56.0904 165.41 56.0904 143.931 56.2588C119.611 56.2588 119.473 56.2588 118.69 57.1008C117.885 57.8306 117.885 57.8867 117.885 67.3118V76.8043H101.484L101.467 51.2572L101.432 51.4143ZM160.522 46.5306C161.212 45.9692 161.959 45.6324 162.189 45.2956C162.189 44.7342 162.764 42.7134 162.764 40.1873C162.764 35.1351 162.189 34.2931 160.062 33.6531C159.256 33.6531 151.522 33.0918 139.152 33.0918L119.524 33.0862L118.777 33.9843C118.087 34.8264 118.029 35.3316 118.029 39.9796V45.0879L120.099 47.1088H139.756C157.203 47.1088 159.555 47.1088 160.694 46.4351L160.522 46.5306ZM236.052 72.2461C233.58 68.878 232.084 67.2501 230.877 66.4474L229.209 65.3246H206.361C188.091 65.3246 183.525 65.3247 183.525 64.7633C183.525 64.202 188.125 58.5828 190.081 56.59L191.001 55.6357H206.235C217.621 55.6357 221.583 55.6357 221.894 55.0744C222.872 54.1201 221.894 52.829 215.511 43.314C210.22 35.7638 208.776 33.4567 209.029 33.0244C209.835 31.621 216.839 23.5993 217.259 23.5993C217.259 23.5993 226.725 35.3372 237.709 49.6854C248.693 64.0336 257.842 75.9679 258.032 76.2037C258.032 76.765 256.422 76.765 248.946 76.765H239.514L236.064 72.0497L236.052 72.2461ZM287.694 76.5686C281.386 75.7827 278.384 73.3688 277.51 68.4738C276.935 66.902 276.935 60.9405 276.935 48.95V31.6996L277.97 29.6788C278.717 28.2193 279.465 27.3772 280.73 26.5352C284.353 24.1214 285.561 24.0652 315.89 24.0652C344.409 24.0765 346.243 24.0652 349.607 25.7493C350.47 26.3107 351.735 27.0966 352.425 27.8824C353.863 29.5104 354.898 32.4294 354.323 33.103C353.748 33.6644 348.687 33.6644 324.338 33.6644C296.096 33.6644 294.705 33.6924 294.152 34.2819C293.577 34.8432 293.577 36.4711 293.577 50.286V65.6671L294.498 66.3968C295.418 67.0705 295.59 67.1266 324.724 67.1266H354.024L354.018 68.2493C354.018 70.214 353.271 71.9542 351.89 73.4699C350.165 75.2662 347.922 76.1644 343.857 76.6696C340.406 77.231 290.714 77.2309 287.372 76.6584L287.694 76.5686ZM377.872 59.4585L377.93 41.9836H402.543C421.992 41.9836 427.203 41.9892 427.427 42.545C428.002 43.1625 428.002 49.8987 427.427 50.6677C426.852 51.2852 426.507 51.3414 411.595 51.3414H396.12L395.372 52.1273C394.624 52.9132 394.624 53.1938 394.624 59.7392C394.624 66.4361 394.642 66.5821 395.43 67.3062L396.235 68.036H423.304C443.897 68.036 450.476 68.036 450.798 68.5973C450.798 68.5973 451.373 70.3937 451.373 73.2004V77.4106H378.016V59.9301L377.872 59.4585ZM377.93 33.5184C377.93 33.5184 377.93 31.1046 377.872 28.6347V24.2H451.592V33.7429H414.804C384.779 33.7429 377.993 33.7486 377.849 33.1816L377.93 33.5184ZM10.5297 76.5573C5.06644 75.8276 1.71948 73.6383 0.638333 70.0007C0.0632548 68.4289 0.0632548 67.9237 0.638333 67.5308C1.21341 66.9694 5.41149 66.9694 32.4344 66.9694H63.8107L64.5583 66.0712C65.1909 65.2854 65.3059 64.724 65.3059 60.8507C65.3059 57.0896 65.3059 56.416 64.6158 55.6862L63.9257 54.9003H38.1277C11.4383 54.9003 10.8747 54.9003 8.01659 53.2163C3.76101 51.0831 2.43833 47.1986 2.84088 37.678C2.84088 31.52 3.64599 29.69 5.8888 27.5681C7.72905 25.8279 9.51179 25.0981 13.4223 24.5368C15.0325 24.5368 24.6651 23.9754 41.9002 24.5368C67.8017 24.5368 67.9225 24.5368 70.24 25.3788C73.3455 26.3892 75.7033 28.0172 76.9455 29.9819C77.8656 31.4414 77.9231 31.6659 77.5205 32.6202L76.9455 33.6307H47.8983C22.1635 33.6307 18.7533 33.6307 18.069 34.192C17.3214 34.7534 17.2638 34.9779 17.2638 39.0758C17.2638 42.2755 17.2638 43.6228 17.8389 44.0718C18.414 44.6893 19.1041 44.7455 43.7749 44.9139C70.7404 44.9139 71.4247 44.9139 74.7429 46.8225C78.826 48.8433 79.8611 51.8185 79.8611 61.3222C79.8611 70.5059 78.826 73.3688 74.6279 75.4514C71.35 77.0794 71.35 77.0794 41.2619 77.1917C25.7002 77.2309 11.9156 77.1917 10.6274 77.1917L10.5297 76.5573ZM101.432 51.3863L101.421 25.8447L103.606 24.0484H169.384L171.741 24.8343C174.789 25.8447 176.802 27.3604 177.935 29.4935C178.798 31.1776 178.855 31.2337 178.855 39.727C178.855 49.2363 178.855 50.011 176.67 52.2451C175.175 53.8169 173.564 54.7151 170.585 55.501C168.63 56.0623 165.41 56.0624 143.931 56.2308C119.611 56.2308 119.473 56.2307 118.69 57.0728C117.885 57.8025 117.885 57.8587 117.885 67.2838V76.7762H101.484L101.467 51.2291L101.432 51.3863ZM160.522 46.5025C161.212 45.9411 161.959 45.6043 162.189 45.2675C162.189 44.7062 162.764 42.6853 162.764 40.1592C162.764 35.1071 162.189 34.265 160.062 33.6251C159.256 33.6251 151.522 33.0637 139.152 33.0637L119.524 33.0581L118.777 33.9563C118.087 34.7983 118.029 35.3035 118.029 39.9515V45.0598L120.099 47.0807H139.756C157.203 47.0807 159.555 47.0807 160.694 46.4071L160.522 46.5025ZM236.052 72.2181C233.58 68.8499 232.084 67.222 230.877 66.4193L229.209 65.2966H206.361C188.091 65.2966 183.525 65.2966 183.525 64.7352C183.525 64.1739 188.125 58.5548 190.081 56.562L191.001 55.6076H206.235C217.621 55.6076 221.583 55.6077 221.894 55.0463C222.872 54.092 221.894 52.8009 215.511 43.2859C210.22 35.7358 208.776 33.4286 209.029 32.9964C209.835 31.593 216.839 23.5712 217.259 23.5712C217.259 23.5712 226.725 35.3091 237.709 49.6573C248.693 64.0055 257.842 75.9398 258.032 76.1756C258.032 76.737 256.422 76.7369 248.946 76.7369H239.514L236.064 72.0216L236.052 72.2181ZM287.694 76.5405C281.386 75.7546 278.384 73.3408 277.51 68.4458C276.935 66.874 276.935 60.9124 276.935 48.9219V31.6716L277.97 29.6507C278.717 28.1912 279.465 27.3492 280.73 26.5071C284.353 24.0933 285.561 24.0372 315.89 24.0372C344.409 24.0484 346.243 24.0372 349.607 25.7212C350.47 26.2826 351.735 27.0685 352.425 27.8544C353.863 29.4823 354.898 32.4013 354.323 33.0749C353.748 33.6363 348.687 33.6363 324.338 33.6363C296.096 33.6363 294.705 33.6644 294.152 34.2538C293.577 34.8152 293.577 36.4431 293.577 50.258V65.639L294.498 66.3688C295.418 67.0424 295.59 67.0985 324.724 67.0985H354.024L354.018 68.2212C354.018 70.186 353.271 71.9262 351.89 73.4418C350.165 75.2381 347.922 76.1363 343.857 76.6415C340.406 77.2029 290.714 77.2029 287.372 76.6303L287.694 76.5405ZM377.872 59.4305L377.93 41.9556H402.543C421.992 41.9556 427.203 41.9612 427.427 42.5169C428.002 43.1344 428.002 49.8706 427.427 50.6397C426.852 51.2572 426.507 51.3133 411.595 51.3133H396.12L395.372 52.0992C394.624 52.8851 394.624 53.1658 394.624 59.7111C394.624 66.4081 394.642 66.554 395.43 67.2782L396.235 68.0079H423.304C443.897 68.0079 450.476 68.0079 450.798 68.5693C450.798 68.5693 451.373 70.3656 451.373 73.1724V77.3825H378.016V59.902L377.872 59.4305ZM377.93 33.4903C377.93 33.4903 377.93 31.0765 377.872 28.6066V24.1719H451.592V33.7149H414.804C384.779 33.7149 377.993 33.7205 377.849 33.1535L377.93 33.4903ZM10.2421 76.5629C4.47986 75.8332 1.4607 73.6439 0.42556 69.6022C-0.149518 68.0304 -0.149519 67.9181 1.00064 67.3006C1.74824 66.6831 3.24344 66.6831 33.0095 66.6831C63.5174 66.6831 64.2362 66.6663 64.587 66.0095C64.587 65.4481 65.1621 63.2028 65.1621 60.5644C65.1621 56.2981 65.1046 55.7368 64.5295 55.4561C63.9544 55.4561 54.0401 54.8947 38.766 54.8947C10.8862 54.8947 10.6792 54.8947 7.26324 52.4809C3.69775 50.1232 3.12267 48.383 3.12267 39.2947C3.12267 31.2449 3.69775 29.5553 5.71053 27.3885C7.32075 25.8167 8.87345 25.0869 12.1284 24.3572C14.3712 23.7958 17.6492 23.7958 40.3302 23.7958C64.104 23.7846 66.2087 23.8295 68.7966 24.4133C72.2471 25.1992 74.4899 26.378 76.3186 28.2866C77.8713 29.9707 78.3314 31.1495 77.7563 32.3845L77.1813 33.2265H48.3698C30.5021 33.2265 19.2249 33.2265 18.667 33.7879L17.7469 34.3492V39.0646C17.7469 43.2186 17.7469 43.8922 18.3795 44.3413C18.9546 44.9027 21.1399 44.9026 42.8088 44.9026C57.8931 44.9026 67.589 44.9027 69.3084 45.464C74.5416 46.1938 77.4515 47.8778 79.0157 51.2066C79.6483 52.61 79.7634 53.5082 79.8784 60.1658C79.9359 64.8812 79.8496 68.2437 79.8784 69.4562C78.9007 73.947 75.5078 76.5068 69.5672 77.1467C65.9442 77.7081 13.6811 77.7081 10.6965 77.1524L10.2421 76.5629ZM101.427 51.3414V25.7774L102.232 25.0476C102.807 24.4863 103.382 24.2056 103.842 24.0372C104.877 23.4758 159.521 23.4758 165.473 24.054C172.633 24.6154 176.118 26.0749 178.084 29.6732C178.775 30.9643 178.832 31.5817 178.947 39.3396C178.947 48.602 178.947 50.1962 176.934 52.4416C176.359 53.1152 175.037 54.1257 174.001 54.5748C170.321 56.315 168.653 56.4272 143.217 56.4272C122.601 56.4385 119.708 56.4272 119.024 56.9886C118.276 57.5499 118.219 57.606 118.219 66.6831C118.219 71.7353 118.219 76.0858 118.219 76.3777C118.219 76.939 116.954 76.939 109.828 76.939H101.662V51.375L101.427 51.3414ZM159.837 46.5137C162.138 45.8962 162.54 44.9981 162.54 40.3669C162.54 35.7077 162.54 34.8657 160.7 34.0124C159.665 33.4511 158.055 33.3949 139.692 33.2827C122.118 33.2827 119.731 33.2433 118.989 33.844C118.184 34.4053 118.184 34.4615 118.184 39.9964C118.184 45.1609 118.242 45.6717 118.874 46.3004C119.565 46.974 120.025 46.974 139.054 46.974C151.326 46.974 159.003 46.974 159.82 46.4127L159.837 46.5137ZM237.064 73.7281C235.742 71.9879 234.132 69.7986 233.441 68.8443C232.636 67.7778 231.486 66.7673 230.451 66.206L228.726 65.3078H205.936C185.526 65.3078 183.174 65.2517 183.358 64.7464C183.358 64.1851 185.141 62.3327 187.096 59.975L190.661 55.7087H205.959C219.41 55.7087 221.33 55.7087 221.813 55.1473C222.388 54.586 222.388 54.3614 222.388 54.0246C222.388 53.4633 219.398 49.1409 215.706 43.9034C212.026 38.6829 208.955 34.1359 208.88 33.8552C208.88 33.1255 216.747 23.5656 217.431 23.6947C218.006 23.6947 258.377 76.2486 258.377 76.7089C258.377 76.7089 254.121 76.7089 248.94 76.7089H239.509L237.151 73.5653L237.064 73.7281ZM287.464 76.5349C282.749 75.9735 279.73 74.2333 278.165 71.1459L277.36 69.5179V51.1561C277.36 30.3243 277.36 30.2401 279.776 27.5849C281.386 25.9009 283.514 24.8904 286.918 24.2729C290.368 23.5993 342.022 23.5993 345.605 24.2617C350.723 25.1599 353.754 27.4053 354.875 31.0485C355.68 33.743 358.383 33.5184 325.259 33.5184C299.006 33.5184 295.533 33.5184 294.843 34.0798L294.095 34.6411V65.1787L295.705 66.6382H324.706C348.135 66.6382 353.828 66.6382 354.334 67.1996C354.91 67.7609 354.91 67.817 354.334 69.5572C353.644 72.9254 351.632 74.8901 347.675 76.1644C345.892 76.7257 343.707 76.7819 317.633 76.838C302.163 76.8717 288.557 76.7931 287.407 76.838L287.464 76.5349ZM377.775 59.4754C377.775 42.6404 377.798 42.0847 378.465 41.7422C379.5 41.1809 426.386 41.1809 427.168 41.7422C427.743 42.3036 427.743 42.6965 427.743 46.4015V50.6677H411.952C397.391 50.6677 396.108 50.6677 395.533 51.4536C394.958 52.015 394.9 52.8009 394.9 59.0319C394.9 65.2629 394.958 66.06 395.533 66.6045C396.108 67.1659 397.833 67.222 423.654 67.3904H451.16V76.4843H377.763V59.0993L377.775 59.4754ZM378.194 33.8384C377.619 33.277 377.619 31.9859 377.619 28.8985C377.619 24.8006 377.677 24.3515 378.309 24.0147C379.057 23.4534 450.142 23.4534 451.155 24.0147C451.96 24.5761 451.96 33.8664 451.155 34.1752C451.155 34.1752 434.368 34.1752 414.534 34.1752C386.953 34.1752 378.373 34.1752 378.051 33.6138L378.194 33.8384ZM9.14949 76.5573C6.33161 75.996 3.22619 74.8733 2.01277 73.3015C1.43769 72.684 0.862617 71.2806 0.575078 70.214C-5.36442e-07 68.6422 -5.36442e-07 68.137 0.575078 67.4634C0.575078 66.9021 1.26517 66.5652 1.61022 66.5091C2.1853 66.5091 15.9239 66.453 32.7392 66.5259C59.7219 66.5259 63.3909 66.526 64.0062 65.9646C64.6388 65.4033 64.6963 65.0664 64.6963 60.6317C64.6963 56.7023 64.6963 55.748 64.1212 55.5234C64.1212 55.5234 54.8452 54.9621 41.5897 54.9621C29.4843 54.9565 17.8274 54.9621 15.6939 54.4007C10.1731 53.8394 7.50477 53.0535 5.41149 51.0326C3.05367 48.7311 2.5936 47.047 2.36357 40.4399C1.78849 28.6908 3.97379 25.1711 11.7891 23.5937C15.6996 22.8078 64.0005 22.8078 68.1698 23.56C71.7928 24.2336 74.2139 25.4686 76.1519 27.5456C77.9921 29.5665 78.3947 30.6892 77.7046 31.9242L77.1295 32.8223H47.6912C22.0312 32.8223 18.2185 32.8223 17.9309 33.496C17.9309 33.496 17.3559 35.7975 17.3559 37.9868C17.3501 41.2426 17.3559 42.0847 17.9884 42.646C18.621 43.3758 18.736 43.3758 43.9302 43.488C66.7378 43.488 69.4637 43.488 71.327 44.2178C76.1576 45.565 78.3774 47.642 79.4183 51.622C80.2234 54.7095 79.9934 67.4016 78.8432 69.8323C77.9806 72.0777 75.7953 74.1547 73.2075 75.1652L71.1372 75.9511L41.0951 76.0072C24.5673 76.0353 10.0064 75.951 8.73543 76.0072L9.14949 76.5573ZM101.312 76.5573C101.312 76.5573 101.312 64.9149 101.312 50.9596V25.5921L103.612 23.5712L135.764 23.5769C170.062 23.5825 170.476 23.6049 174.088 25.2609C176.158 26.2152 177.768 27.787 178.688 29.6956C179.378 31.1551 179.436 31.8287 179.436 40.0975V48.9612L178.516 50.6453C177.021 53.3959 175.18 54.6309 171.057 55.8097C169.159 56.3711 166.514 56.4272 144.333 56.5395C119.864 56.5395 119.697 56.5395 119.087 57.3815C118.512 57.999 118.455 59.0094 118.455 67.4353V76.7762H110.122C105.521 76.7762 101.697 76.7762 101.57 76.7762L101.312 76.5573ZM160.274 45.9524C160.907 45.9524 161.654 45.1665 161.827 44.7735C161.827 44.2122 162.402 42.2474 162.402 39.7775C162.402 34.9499 162.402 34.5008 159.699 33.8103C158.837 33.8103 151.579 33.249 139.071 33.249C120.232 33.249 119.749 33.2658 119.064 33.9226C118.432 34.5401 118.374 35.0453 118.374 39.48C118.374 43.9147 118.374 44.476 119.122 45.2788L119.869 46.1769H139.594C155.812 46.1769 159.527 46.1769 160.499 45.6156L160.274 45.9524ZM238.991 76.3608C238.991 76.3608 237.036 74.0593 235.311 71.7016C233.585 69.4001 231.572 67.0985 230.825 66.5933L229.445 65.6951H206.206C185.014 65.6951 182.978 65.6951 183.019 64.9654C183.042 64.404 184.744 62.3832 186.814 59.9132L190.552 55.4224H221.779L221.773 54.412C221.773 53.6261 220.048 50.9877 215.016 43.7406C211.278 38.4639 208.339 33.9001 208.431 33.6644C209.006 32.6539 216.787 23.5488 217.265 23.5488C217.84 23.5488 258.285 76.0802 258.285 76.7482C258.285 77.3095 239.704 77.3095 238.98 76.7482L238.991 76.3608ZM286.395 76.3608C282.197 75.7995 279.373 74.0593 277.792 70.7361C276.986 69.052 276.986 68.9959 276.871 51.128C276.871 29.9707 276.871 30.0043 279.804 27.0292C281.299 25.5697 282.047 25.1206 284.175 24.447L286.763 23.6611H345.461L347.934 24.447C349.314 25.0083 351.039 25.6258 351.787 26.1872C354.03 27.7589 356.042 32.1207 355.065 33.2602C354.49 33.8216 350.579 33.8215 325.143 33.8215C305.47 33.8215 295.406 33.8216 294.958 34.3829C294.325 34.9443 294.268 35.2811 294.268 50.011V65.2854L295.878 66.7449H325.259C358.188 66.7449 355.352 66.7449 354.697 69.3271C353.662 73.9302 350.901 76.0577 345.329 76.6303C341.763 77.1917 289.966 77.1917 286.383 76.6078L286.395 76.3608ZM377.66 76.3608C377.66 76.3608 377.66 42.4046 377.637 41.658C377.637 41.0967 380.34 41.0967 402.762 41.0967C425.144 41.0967 427.68 41.1528 427.87 41.658C428.445 42.5562 427.87 49.6517 427.87 50.3534C427.295 50.9709 426.95 51.027 411.98 51.027C396.913 51.027 396.424 51.0495 395.746 51.7006C395.113 52.3181 395.056 52.8233 395.056 59.0319C395.056 65.2292 395.107 65.7288 395.746 66.3631C396.436 67.0368 396.896 67.0368 423.649 67.0368C446.462 67.0368 450.93 67.0368 451.264 67.5981C451.264 68.1595 451.839 69.4506 451.264 72.3135V76.5236H414.551C394.366 76.5685 377.734 76.5068 377.602 76.5236L377.66 76.3608ZM377.637 33.4174C377.062 32.6315 377.637 24.3066 377.694 23.807C377.694 23.2457 385.607 23.2457 414.988 23.2457H452V33.4623H414.913C381.323 33.4623 377.809 33.496 377.619 32.9009L377.637 33.4174Z" fill="white"/>
<path d="M580 23C562.5 30.471 525.738 40.8 490 112C503.402 63.05 536.065 27.45 545 23H580Z" fill="white"/>
<path d="M507 23H477L514.5 48L522 38L507 23Z" fill="white"/>
</svg>
